<?xml version="1.0" standalone="no"?><!DOCTYPE svg PUBLIC "-//W3C//DTD SVG 1.1//EN" "http://www.w3.org/Graphics/SVG/1.1/DTD/svg11.dtd"><svg t="1551678366976" class="icon" style="" viewBox="0 0 1024 1024" version="1.1" xmlns="http://www.w3.org/2000/svg" p-id="7197" xmlns:xlink="http://www.w3.org/1999/xlink" width="48" height="48"><defs><style type="text/css"></style></defs><path d="M513.024 517.12m-491.52 0a491.52 491.52 0 1 0 983.04 0 491.52 491.52 0 1 0-983.04 0Z" fill="#14BDF1" p-id="7198"></path><path d="M513.536 480.768c68.096 0 123.904-59.392 123.904-132.608s-55.808-132.608-123.904-132.608S389.632 274.944 389.632 348.16c0 73.216 55.296 132.608 123.904 132.608zM498.688 674.304l114.176-162.304c-24.576-6.656-58.88-12.8-99.328-12.8-2.56 0-72.704-5.632-145.408 27.648 0 0-9.216 1.024-27.136 28.672-27.648 45.056-70.144 110.592-82.944 132.608-8.704 14.336-30.72 43.52-16.384 73.728 15.872 30.208 29.184 53.248 34.816 56.832h68.608c-1.536-51.2 46.592-136.704 153.6-144.384zM769.024 689.152c-20.992-36.352-68.096-109.568-71.68-116.224-5.12-8.704-20.48-41.984-49.152-50.688-3.072-1.024-7.168-2.048-11.776-3.584l-109.568 155.136c104.448 6.144 156.16 87.552 156.16 144.896h62.464s6.656 0.512 39.424-58.88c12.288-30.208-1.024-44.032-15.872-70.656z" fill="#FFFFFF" p-id="7199"></path><path d="M513.024 712.704c-72.192 0-130.56 46.592-130.56 106.496h261.12c0-59.904-58.368-106.496-130.56-106.496z" fill="#FFFFFF" p-id="7200"></path></svg>