<?xml version="1.0" standalone="no"?><!DOCTYPE svg PUBLIC "-//W3C//DTD SVG 1.1//EN" "http://www.w3.org/Graphics/SVG/1.1/DTD/svg11.dtd"><svg t="1551678351007" class="icon" style="" viewBox="0 0 1024 1024" version="1.1" xmlns="http://www.w3.org/2000/svg" p-id="7087" xmlns:xlink="http://www.w3.org/1999/xlink" width="48" height="48"><defs><style type="text/css"></style></defs><path d="M512.512 515.584m-491.52 0a491.52 491.52 0 1 0 983.04 0 491.52 491.52 0 1 0-983.04 0Z" fill="#FF5A5A" p-id="7088"></path><path d="M656.896 382.976c2.048 1.024 3.584 2.048 5.632 3.584l5.632 3.584v6.656c0.512 18.944-2.048 35.328-7.168 47.616-4.608 11.264-11.264 19.968-20.48 25.088-6.144 22.528-13.312 43.008-24.064 60.416-11.776 19.968-27.648 35.328-50.176 43.52-9.728 3.584-35.328 5.12-59.904 5.12-23.552-0.512-47.616-2.56-56.832-7.168-20.48-9.216-34.304-25.088-45.568-44.544-9.216-16.896-15.872-36.352-21.504-56.832-9.728-5.12-16.384-13.312-21.504-25.088-5.12-12.8-7.68-29.184-7.168-48.64v-6.656l5.632-3.584c1.536-1.024 2.56-2.048 4.096-2.56-6.144-76.8-4.096-104.96 24.576-137.728 55.808-45.568 183.296-44.032 239.616-2.56 38.4 36.352 40.96 76.8 29.184 139.776z m-116.736 221.696l1.024 17.408-10.24 17.408 14.336 95.232 59.392-128 90.624-3.072c46.592 44.032 76.8 148.48 69.632 216.576H259.584c1.024-59.904 12.288-161.792 71.68-213.504l81.92 0.512 76.8 126.464 14.336-94.72-10.24-17.408 1.024-17.408c19.456-0.512 25.088-0.512 45.056 0.512z m67.584-248.832c-35.84 7.168-89.6 13.312-132.096-10.752-16.384-9.216-39.936 9.728-59.904 7.68-6.144 11.776-10.752 25.088-13.312 38.912l-2.048 11.264-11.264-1.024c-2.048 0-4.608 0-6.656 1.024-1.024 0.512-2.048 0.512-3.072 1.024 0.512 12.8 2.048 23.552 5.632 31.232 3.072 7.168 7.168 11.264 12.288 13.312l6.656 2.048 2.048 6.656c5.632 20.992 12.288 40.96 20.992 56.832 8.192 14.848 18.944 27.136 33.792 33.792 6.144 3.072 25.6 4.608 46.592 4.608 22.016 0.512 43.52-1.024 50.688-3.584 16.384-6.144 27.648-17.408 36.864-32.768 9.728-16.384 16.896-36.864 22.528-59.392l1.536-6.656 6.656-2.048c5.12-2.048 9.216-6.656 11.776-13.312 3.072-7.68 5.12-18.432 5.12-30.72-1.024-0.512-2.048-1.024-3.072-1.024-2.048-0.512-4.608-1.024-6.656-1.024l-11.264 0.512-2.048-11.264c-2.048-11.776-6.144-24.064-11.776-35.328z" fill="#FFFFFF" p-id="7089"></path></svg>