<?xml version="1.0" standalone="no"?><!DOCTYPE svg PUBLIC "-//W3C//DTD SVG 1.1//EN" "http://www.w3.org/Graphics/SVG/1.1/DTD/svg11.dtd"><svg t="1551678328169" class="icon" style="" viewBox="0 0 1024 1024" version="1.1" xmlns="http://www.w3.org/2000/svg" p-id="6866" xmlns:xlink="http://www.w3.org/1999/xlink" width="48" height="48"><defs><style type="text/css"></style></defs><path d="M521.216 516.096m-491.52 0a491.52 491.52 0 1 0 983.04 0 491.52 491.52 0 1 0-983.04 0Z" fill="#2D7BF4" p-id="6867"></path><path d="M776.192 470.528h-133.632c-12.288 0-22.528 10.24-22.528 22.528v59.392c0 12.288 10.24 22.528 22.528 22.528h133.632c12.288 0 22.528-10.24 22.528-22.528V492.544c-0.512-12.288-10.24-22.016-22.528-22.016z m-103.936 74.24c-12.288 0-22.528-10.24-22.528-22.528 0-12.288 10.24-22.528 22.528-22.528 12.288 0 22.528 10.24 22.528 22.528 0 12.288-10.24 22.528-22.528 22.528z" fill="#FFFFFF" p-id="6868"></path><path d="M635.392 440.832h133.632V349.696c0-24.576-19.968-44.544-44.544-44.544H308.736c-24.576 0-44.544 19.968-44.544 44.544v344.576c0 24.576 19.968 44.544 44.544 44.544h415.232c24.576 0 44.544-19.968 44.544-44.544v-90.624H634.88c-24.576 0-44.544-19.968-44.544-44.544V485.376c0.512-24.576 19.968-44.544 45.056-44.544z m-288.768 189.44c0 10.24-8.192 17.92-17.92 17.92-10.24 0-17.92-8.192-17.92-17.92V414.208c0-10.24 8.192-17.92 17.92-17.92 10.24 0 17.92 8.192 17.92 17.92v216.064z" fill="#FFFFFF" p-id="6869"></path></svg>