<?xml version="1.0" standalone="no"?><!DOCTYPE svg PUBLIC "-//W3C//DTD SVG 1.1//EN" "http://www.w3.org/Graphics/SVG/1.1/DTD/svg11.dtd"><svg t="1551678339209" class="icon" style="" viewBox="0 0 1024 1024" version="1.1" xmlns="http://www.w3.org/2000/svg" p-id="6977" xmlns:xlink="http://www.w3.org/1999/xlink" width="48" height="48"><defs><style type="text/css"></style></defs><path d="M521.216 516.096m-491.52 0a491.52 491.52 0 1 0 983.04 0 491.52 491.52 0 1 0-983.04 0Z" fill="#FFB400" p-id="6978"></path><path d="M431.104 668.16c0 27.648-22.016 49.664-49.664 49.664s-49.664-22.016-49.664-49.664 22.016-49.664 49.664-49.664c27.648 0 49.664 22.528 49.664 49.664z m300.544 0c0 27.648-22.016 49.664-49.664 49.664-27.648 0-49.664-22.016-49.664-49.664s22.016-49.664 49.664-49.664c27.648 0 49.664 22.528 49.664 49.664z m52.224-182.784l-48.128-64c-9.728-11.776-16.384-21.504-32.256-21.504h-96.768c-11.776 0-21.504 9.728-21.504 21.504v214.528c0 11.776 9.728 21.504 21.504 21.504 5.12-36.864 36.864-65.536 75.264-65.536 38.4 0 70.144 28.672 75.264 65.536h21.504c11.776 0 21.504-9.728 21.504-21.504v-107.52c0-19.968-16.384-43.008-16.384-43.008z m-133.632 43.52V442.88h52.736c3.584 0 8.192 5.12 8.192 5.12l45.056 62.464c4.096 5.632 8.192 12.8 8.192 18.432H650.24z m-107.52-215.04H263.168c-11.776 0-21.504 9.728-21.504 21.504v300.544c0 11.776 9.728 21.504 21.504 21.504h43.008c5.12-36.864 36.864-65.536 75.264-65.536 38.4 0 70.144 28.672 75.264 65.536H542.72c11.776 0 21.504-9.728 21.504-21.504V335.36c0-11.776-9.728-21.504-21.504-21.504z" fill="#FFFFFF" p-id="6979"></path></svg>