<?xml version="1.0" standalone="no"?><!DOCTYPE svg PUBLIC "-//W3C//DTD SVG 1.1//EN" "http://www.w3.org/Graphics/SVG/1.1/DTD/svg11.dtd"><svg t="1551677463431" class="icon" style="" viewBox="0 0 1024 1024" version="1.1" xmlns="http://www.w3.org/2000/svg" p-id="4556" xmlns:xlink="http://www.w3.org/1999/xlink" width="48" height="48"><defs><style type="text/css"></style></defs><path d="M511.488 513.024m-491.52 0a491.52 491.52 0 1 0 983.04 0 491.52 491.52 0 1 0-983.04 0Z" fill="#00D6BA" p-id="4557"></path><path d="M781.312 759.808h-17.92v-215.552c0-19.968-15.872-35.84-35.84-35.84h-71.68c-19.968 0-36.352 15.872-36.352 35.84v216.064h-35.84V256.512c0-19.968-16.384-36.352-36.352-36.352H476.16c-19.968 0-36.352 15.872-36.352 35.84v503.296h-35.84V399.872c0-19.968-16.384-35.84-36.352-35.84H296.448c-19.968 0-35.84 15.872-36.352 35.328v359.936h-17.92c-9.728 0.512-17.408 9.216-16.896 18.944 0.512 9.216 7.68 16.384 16.896 16.896h539.648c9.728-0.512 17.408-9.216 16.896-18.944-1.024-8.704-8.192-15.872-17.408-16.384z" fill="#FFFFFF" p-id="4558"></path></svg>