<?xml version="1.0" standalone="no"?><!DOCTYPE svg PUBLIC "-//W3C//DTD SVG 1.1//EN" "http://www.w3.org/Graphics/SVG/1.1/DTD/svg11.dtd"><svg t="1551678312360" class="icon" style="" viewBox="0 0 1024 1024" version="1.1" xmlns="http://www.w3.org/2000/svg" p-id="6756" xmlns:xlink="http://www.w3.org/1999/xlink" width="48" height="48"><defs><style type="text/css"></style></defs><path d="M513.024 513.024m-491.52 0a491.52 491.52 0 1 0 983.04 0 491.52 491.52 0 1 0-983.04 0Z" fill="#F95B7C" p-id="6757"></path><path d="M802.304 698.88v30.72H224.256v-30.72c0-45.568 36.864-82.432 82.432-82.432H404.48s35.84-35.328 35.84-70.656S368.64 474.624 368.64 368.64c0-79.872 64.512-144.384 144.384-144.384s144.384 64.512 144.384 144.384c0 105.984-71.68 141.312-71.68 177.152 0 35.328 35.84 70.656 35.84 70.656h97.792c45.568 0 82.944 36.864 82.944 82.432zM224.256 802.304h578.048v-41.472H224.256v41.472z" fill="#FFFFFF" p-id="6758"></path></svg>