<?xml version="1.0" standalone="no"?><!DOCTYPE svg PUBLIC "-//W3C//DTD SVG 1.1//EN" "http://www.w3.org/Graphics/SVG/1.1/DTD/svg11.dtd"><svg t="1569495612187" class="icon" viewBox="0 0 1024 1024" version="1.1" xmlns="http://www.w3.org/2000/svg" p-id="4503" xmlns:xlink="http://www.w3.org/1999/xlink" width="200" height="200"><defs><style type="text/css"></style></defs><path d="M692.29056 649.7792h-378.1632a12.4416 12.4416 0 0 0-12.43648 12.46208 12.416 12.416 0 0 0 12.4416 12.42112h378.1632a12.4416 12.4416 0 0 0 0-24.8832z m0-127.78496h-378.1632a12.43648 12.43648 0 0 0-12.43648 12.45696 12.416 12.416 0 0 0 12.4416 12.42112h378.1632a12.41088 12.41088 0 0 0 12.416-12.42112 12.43136 12.43136 0 0 0-12.42112-12.45696z m0-127.75424h-378.1632a12.43136 12.43136 0 0 0 0 24.86272h378.1632c6.87104 0 12.42112-5.57056 12.42112-12.4416S699.1616 394.24 692.29056 394.24z m268.6976-217.18016c0-63.42144-53.01248-115.04128-118.1696-115.04128H263.51616c-0.27136 0-0.512 0.04096-0.80384 0.05632-0.27136-0.02048-0.52736-0.0512-0.80384-0.0512-63.4368 0-115.05664 51.61472-115.05664 115.03616V849.6128c0 8.4736 3.41504 16.54784 9.51808 22.39488l93.99296 90.65472a31.13984 31.13984 0 0 0 43.18208 0l95.8976-92.48256 99.49184 95.93344a31.05792 31.05792 0 0 0 43.20256 0l99.49184-95.93344 99.51232 95.93344a31.03232 31.03232 0 0 0 21.57568 8.7296c7.7824 0 15.58016-2.9184 21.6064-8.7296l90.07104-86.8352a31.15008 31.15008 0 0 0 9.51808-22.39488V287.96928c50.10432-13.36832 87.07072-57.97376 87.07072-110.90944z m-208.27136 723.51232l-99.51232-95.96928a31.0528 31.0528 0 0 0-43.1616 0l-99.49696 95.96928L411.0336 804.608a31.07328 31.07328 0 0 0-43.18208 0l-95.8976 92.4672-62.90432-60.6464V177.05984c0-29.15328 23.7056-52.864 52.85888-52.864 0.256 0 0.49664-0.07168 0.73216-0.07168 0.3072 0 0.58368 0.07168 0.87552 0.07168h0.11264c30.81216 0.0768 55.8592 23.76704 55.8592 52.864 0 29.15328-25.10336 52.87936-55.97184 52.87936a31.06304 31.06304 0 0 0-31.08864 31.06816 31.09376 31.09376 0 0 0 31.08864 31.1296h548.1984v551.52128l-58.99776 56.91392zM842.81856 229.9392h-474.368a112.15872 112.15872 0 0 0 0-105.74336h474.368c30.8736 0 55.96672 23.71072 55.96672 52.864 0 29.15328-25.09312 52.87936-55.9616 52.87936z" fill="#272636" p-id="4504"></path></svg>